<svg xmlns="http://www.w3.org/2000/svg" width="692.541" height="723.337" viewBox="0 0 692.541 723.337">
  <path id="Icon_awesome-search-dollar" data-name="Icon awesome-search-dollar" d="M607.522,497.26,487.647,385.2a29.751,29.751,0,0,0-20.489-7.815l-19.679.087c33.5-40.013,53.527-90.232,53.772-144.78C501.834,102.945,389.894-1.691,251.173-1.079S-.446,105.159-1.03,234.911,110.327,469.3,249.06,468.687c58.313-.257,112.014-19.015,154.772-50.373l-.083,18.409a25.98,25.98,0,0,0,8.365,19.162L531.99,567.939a30.281,30.281,0,0,0,40.928-.18l34.311-32.111C618.625,524.981,618.7,507.826,607.522,497.26ZM249.385,396.408c-96.03.423-173.527-71.9-173.123-161.838.4-89.818,78.422-162.947,174.585-163.371,96.03-.423,173.527,71.9,173.123,161.838C423.566,322.855,345.548,395.984,249.385,396.408ZM282.89,223.992l-54.273-15.007a14.673,14.673,0,0,1-10.524-14.33c.037-8.21,6.466-14.924,14.313-14.959l33.938-.15A30.213,30.213,0,0,1,281.8,183.68a10.459,10.459,0,0,0,12.234-.878l14.243-12.723a8.668,8.668,0,0,0-.627-13.707,71.582,71.582,0,0,0-37.816-12.651l.083-18.4c.022-4.992-4.282-9.016-9.618-8.992l-19.317.085c-5.336.024-9.677,4.086-9.7,9.077l-.082,18.205c-28.532.837-51.633,23.435-51.757,51.127-.1,22.553,15.491,42.632,37.907,48.835l54.273,15.007A14.673,14.673,0,0,1,282.151,273c-.037,8.21-6.466,14.924-14.313,14.959l-33.926.15a30.213,30.213,0,0,1-15.459-4.133,10.459,10.459,0,0,0-12.234.878l-14.243,12.723a8.668,8.668,0,0,0,.627,13.707,71.582,71.582,0,0,0,37.816,12.651l-.083,18.4c-.022,4.992,4.282,9.016,9.618,8.992l19.317-.085c5.336-.024,9.677-4.086,9.7-9.077l.082-18.205c28.532-.837,51.633-23.424,51.757-51.127C320.911,250.273,305.318,230.195,282.89,223.992Z" transform="translate(1.273 602.61) rotate(-78)" fill="#efefef"/>
</svg>
