<svg xmlns="http://www.w3.org/2000/svg" width="21.091" height="20.564" viewBox="0 0 21.091 20.564">
  <path id="Icon_awesome-github" data-name="Icon awesome-github" d="M7.054,17.12c0,.085-.1.153-.221.153-.14.013-.238-.055-.238-.153s.1-.153.221-.153S7.054,17.023,7.054,17.12Zm-1.322-.191c-.03.085.055.183.183.208a.2.2,0,0,0,.264-.085c.026-.085-.055-.183-.183-.221A.218.218,0,0,0,5.732,16.929Zm1.879-.072c-.123.03-.208.111-.2.208s.123.14.251.111.208-.111.2-.2S7.735,16.844,7.611,16.857ZM10.409.563A10.2,10.2,0,0,0,0,10.938,10.661,10.661,0,0,0,7.207,21.109c.544.1.736-.238.736-.515s-.013-1.718-.013-2.611c0,0-2.977.638-3.6-1.267,0,0-.485-1.237-1.182-1.556,0,0-.974-.668.068-.655a2.245,2.245,0,0,1,1.641,1.1,2.248,2.248,0,0,0,3.1.889,2.363,2.363,0,0,1,.68-1.433c-2.377-.264-4.775-.608-4.775-4.7a3.223,3.223,0,0,1,1-2.5,4.017,4.017,0,0,1,.111-2.887c.889-.276,2.934,1.148,2.934,1.148a10.045,10.045,0,0,1,5.341,0S15.3,4.687,16.184,4.968a4.016,4.016,0,0,1,.111,2.887,3.305,3.305,0,0,1,1.1,2.5c0,4.1-2.5,4.431-4.881,4.7a2.515,2.515,0,0,1,.723,1.973c0,1.433-.013,3.206-.013,3.555,0,.276.2.612.736.515a10.562,10.562,0,0,0,7.135-10.163A10.426,10.426,0,0,0,10.409.563ZM4.133,15.228c-.055.043-.043.14.03.221s.166.1.221.043.043-.14-.03-.221S4.188,15.173,4.133,15.228Zm-.459-.344c-.03.055.013.123.1.166a.127.127,0,0,0,.183-.03c.03-.055-.013-.123-.1-.166C3.772,14.828,3.7,14.841,3.674,14.884ZM5.052,16.4c-.068.055-.043.183.055.264.1.1.221.111.276.043s.03-.183-.055-.264C5.234,16.342,5.107,16.33,5.052,16.4Zm-.485-.625c-.068.043-.068.153,0,.251s.183.14.238.1a.194.194,0,0,0,0-.264C4.745,15.76,4.635,15.717,4.567,15.772Z" transform="translate(0 -0.563)" fill="#342c2c"/>
</svg>
