<svg xmlns="http://www.w3.org/2000/svg" width="21.09" height="20.56" viewBox="0 0 21.09 20.56">
  <path id="Icon_simple-instagram" data-name="Icon simple-instagram" d="M10.545,0C7.68,0,7.323.013,6.2.062A7.951,7.951,0,0,0,3.638.54,5.18,5.18,0,0,0,1.77,1.725,5,5,0,0,0,.554,3.547a7.393,7.393,0,0,0-.49,2.5C.011,7.139,0,7.487,0,10.28s.013,3.141.063,4.238a7.419,7.419,0,0,0,.49,2.5A5.03,5.03,0,0,0,1.77,18.835,5.172,5.172,0,0,0,3.638,20.02,7.961,7.961,0,0,0,6.2,20.5c1.125.051,1.482.062,4.347.062s3.222-.013,4.347-.062a7.979,7.979,0,0,0,2.56-.478,5.2,5.2,0,0,0,1.868-1.186,5.009,5.009,0,0,0,1.216-1.821,7.419,7.419,0,0,0,.49-2.5c.053-1.1.063-1.445.063-4.238s-.013-3.141-.063-4.238a7.436,7.436,0,0,0-.49-2.5A5.034,5.034,0,0,0,19.32,1.725,5.153,5.153,0,0,0,17.452.54a7.933,7.933,0,0,0-2.56-.478C13.767.01,13.41,0,10.545,0Zm0,1.85c2.815,0,3.15.014,4.262.061a5.94,5.94,0,0,1,1.957.356,3.285,3.285,0,0,1,1.214.768,3.169,3.169,0,0,1,.787,1.183,5.552,5.552,0,0,1,.363,1.908c.05,1.085.062,1.41.062,4.155s-.013,3.071-.065,4.155a5.659,5.659,0,0,1-.37,1.908,3.257,3.257,0,0,1-.79,1.184,3.3,3.3,0,0,1-1.213.768,6,6,0,0,1-1.964.354c-1.12.049-1.449.06-4.27.06s-3.151-.013-4.27-.063a6.114,6.114,0,0,1-1.965-.361,3.275,3.275,0,0,1-1.212-.77,3.115,3.115,0,0,1-.791-1.182,5.707,5.707,0,0,1-.369-1.915c-.04-1.079-.054-1.413-.054-4.15S1.873,7.2,1.912,6.1a5.7,5.7,0,0,1,.369-1.914,3.041,3.041,0,0,1,.791-1.183,3.128,3.128,0,0,1,1.212-.769,5.967,5.967,0,0,1,1.952-.361c1.12-.039,1.45-.051,4.27-.051l.04.026Zm0,3.151A5.348,5.348,0,0,0,5.13,10.28a5.348,5.348,0,0,0,5.415,5.279A5.348,5.348,0,0,0,15.96,10.28,5.348,5.348,0,0,0,10.545,5Zm0,8.705A3.428,3.428,0,1,1,14.06,10.28,3.471,3.471,0,0,1,10.545,13.707ZM17.44,4.793A1.266,1.266,0,1,1,16.174,3.56,1.251,1.251,0,0,1,17.44,4.793Z" fill="#fe3d3d"/>
</svg>
