<svg xmlns="http://www.w3.org/2000/svg" width="21.9" height="20.56" viewBox="0 0 21.9 20.56">
  <path id="Icon_awesome-twitter" data-name="Icon awesome-twitter" d="M19.649,8.5c.014.225.014.45.014.675,0,6.859-4.516,14.761-12.77,14.761A11.477,11.477,0,0,1,0,21.612a8.046,8.046,0,0,0,1.084.064,8.253,8.253,0,0,0,5.572-2.217,4.632,4.632,0,0,1-4.2-3.6,4.916,4.916,0,0,0,.848.08,4.146,4.146,0,0,0,1.181-.177,5.06,5.06,0,0,1-3.6-5.092v-.064a4.072,4.072,0,0,0,2.029.659,5.436,5.436,0,0,1-2-4.321,5.775,5.775,0,0,1,.611-2.618,12.287,12.287,0,0,0,9.255,5.429,6.736,6.736,0,0,1-.111-1.189c0-2.859,2-5.188,4.488-5.188A4.222,4.222,0,0,1,18.44,5.019a8.152,8.152,0,0,0,2.849-1.253,5.108,5.108,0,0,1-1.973,2.859,8.063,8.063,0,0,0,2.585-.8A10.6,10.6,0,0,1,19.649,8.5Z" transform="translate(0 -3.381)" fill="#1fa7ee"/>
</svg>
